<svg width="1123" height="794" viewBox="0 0 1123 794" fill="none" xmlns="http://www.w3.org/2000/svg">
<mask id="mask0_952_279322" style="mask-type:luminance" maskUnits="userSpaceOnUse" x="0" y="0" width="1123" height="794">
<path d="M0 -0.00012207H1122.52V793.701H0V-0.00012207Z" fill="white"/>
</mask>
<g mask="url(#mask0_952_279322)">
<path d="M297.021 324.675C297.592 324.675 303.249 327.998 313.994 334.642V335.031C313.994 338.717 311.633 343.674 306.909 349.902L306.442 350.214C305.508 350.214 299.772 346.893 289.234 340.249V338.691C290.896 332.462 293.492 327.79 297.021 324.675Z" fill="white"/>
<path d="M350.435 363.529V363.918C346.438 367.656 340.806 371.73 333.539 376.142C326.791 380.606 317.526 382.838 305.742 382.838C280.1 382.838 264.008 378.297 257.468 369.213C253.627 364.853 251.707 359.584 251.707 353.406C251.707 343.129 256.69 331.268 266.656 317.824C273.975 309.26 280.956 302.978 287.602 298.981C292.168 296.542 294.531 295.166 294.686 294.854C286.588 292.986 280.438 292.052 276.234 292.052H273.819C266.396 292.052 260.479 294.829 256.067 300.384H255.366C254.899 300.384 254.666 300.228 254.666 299.916V299.216C255.028 294.648 257.364 289.43 261.674 283.565C267.435 276.557 275.428 273.054 285.655 273.054H285.966C292.247 273.054 305.56 275.649 325.908 280.84C333.383 282.553 340.027 283.409 345.842 283.409H346.775C347.087 283.409 347.243 283.538 347.243 283.798C344.439 290.65 341.403 297.034 338.132 302.952H331.436C307.404 302.952 285.266 312.114 265.02 330.438C263.931 331.528 262.815 332.929 261.674 334.642V337.601C261.674 345.232 266.294 351.486 275.532 356.365C284.616 360.83 295.206 363.061 307.299 363.061H349.735C350.202 363.061 350.435 363.217 350.435 363.529Z" fill="white"/>
<path d="M385.552 313.775C384.15 323.015 381.036 332.462 376.208 342.116H373.172C373.172 325.662 369.693 295.478 362.738 251.564L372.938 230.852H375.974C382.358 273.262 385.552 300.902 385.552 313.775Z" fill="white"/>
<path d="M795.804 246.892L806.86 254.211V255.613L798.373 272.741L797.44 273.053L795.258 271.964C798.009 286.808 799.386 298.955 799.386 308.403C799.386 319.511 796.582 330.749 790.977 342.116H765.749H763.802H762.945L762.869 342.039C755.393 341.727 748.542 337.989 742.39 330.671C741.665 329.477 741.041 328.387 740.522 327.4C738.705 331.657 736.681 336.563 734.448 342.116H500.397H497.205H472.134H469.486H456.794C453.836 350.915 448.308 360.725 440.054 371.392C434.189 377.984 430.348 381.411 428.53 381.669C425.261 382.501 422.25 382.916 419.498 382.916C412.698 382.448 400.63 377.128 383.293 366.955L384.305 363.14C390.328 365.216 396.374 366.384 402.448 366.643C421.913 366.643 436.836 357.741 447.218 339.936L449.009 335.653C440.756 329.996 436.394 323.067 435.928 314.864C437.329 309.052 439.665 303.185 442.936 297.268L445.816 297.424C447.633 312.425 455.808 320.731 470.342 322.34H472.134H497.205H500.397H736.629C735.642 318.603 733.229 315.436 729.388 312.84C719.162 307.649 705.329 305.055 687.886 305.055H544C530.037 305.055 523.054 302.459 523.054 297.268V295.633C523.054 290.183 528.168 281.54 538.393 269.705C549.034 259.739 559.701 252.783 570.394 248.839C579.478 245.101 588.485 242.143 597.413 239.963C606.912 237.679 617.189 235.705 628.246 234.045L628.636 234.668L621.082 251.331C597.465 256.365 581.502 260.544 573.198 263.865C557.729 269.004 545.453 275.208 536.369 282.475C541.664 284.759 549.684 285.9 560.429 285.9H689.522C715.165 285.9 732.528 290.417 741.612 299.448C743.325 301.992 744.518 304.717 745.194 307.624L747.374 311.517C749.917 316.24 754.926 319.848 762.401 322.34H762.945H765.749H787.784C787.784 312.736 784.513 292.233 777.973 260.829C772.004 257.248 769.02 252.316 769.02 246.035C769.02 239.911 771.952 233.032 777.818 225.403L779.998 226.648L779.376 229.84C779.376 234.927 784.85 240.611 795.804 246.892Z" fill="white"/>
<path d="M836.134 230.852C842.52 273.262 845.712 300.902 845.712 313.775C844.31 323.015 841.196 332.462 836.369 342.116H833.33C833.33 325.662 829.853 295.478 822.898 251.564L833.098 230.852H836.134Z" fill="white"/>
<path d="M304.664 434.68L304.415 431.682C304.081 430.017 303.831 428.933 303.664 428.433C303.499 427.933 303.081 427.434 302.415 426.934C301.416 426.434 299.917 426.185 297.917 426.185C295.585 426.185 293.92 426.685 292.921 427.685C291.921 428.684 291.421 430.432 291.421 432.93V470.41C291.421 474.741 292.671 476.906 295.169 476.906L297.419 476.656C298.251 476.489 298.917 476.406 299.417 476.406C301.083 476.406 302.332 476.989 303.165 478.156C304.164 479.321 304.664 480.821 304.664 482.653C304.664 486.652 302.748 488.65 298.917 488.65H296.668L292.671 488.15C289.839 487.817 286.924 487.652 283.925 487.652C280.761 487.652 277.763 487.817 274.931 488.15L270.933 488.65H268.685C264.853 488.65 262.939 486.568 262.939 482.404C262.939 480.738 263.437 479.321 264.437 478.156C265.436 476.989 266.685 476.406 268.185 476.406C268.685 476.406 269.351 476.489 270.184 476.656L272.432 476.906C275.097 476.906 276.431 474.741 276.431 470.41V432.93C276.431 430.432 275.848 428.684 274.681 427.684C273.681 426.685 272.016 426.185 269.684 426.185C267.519 426.185 266.02 426.434 265.187 426.934C264.687 427.268 264.353 427.684 264.188 428.184C263.855 428.85 263.521 430.016 263.188 431.682L262.939 434.68L262.688 437.429C262.355 439.761 262.021 441.509 261.689 442.676C261.356 443.676 261.023 444.508 260.689 445.174C259.523 446.506 257.941 447.173 255.941 447.173C254.276 447.173 252.86 446.59 251.693 445.425C250.528 444.092 249.945 442.593 249.945 440.928L250.195 435.929C250.528 433.764 250.695 432.016 250.695 430.682C250.695 429.684 250.611 428.35 250.444 426.685C250.279 425.02 250.112 422.936 249.945 420.438V419.189C249.945 416.524 251.527 415.192 254.692 415.192L268.935 415.94H283.925H298.668L313.16 415.192C316.159 415.192 317.657 416.524 317.657 419.189V420.438C317.491 422.27 317.324 424.186 317.157 426.185V430.682V433.681C317.324 434.68 317.407 435.429 317.407 435.929L317.657 440.928C317.657 442.593 317.075 444.092 315.908 445.425C314.743 446.59 313.327 447.173 311.66 447.173H310.411C310.245 447.006 309.995 446.84 309.661 446.673C308.329 446.173 307.413 445.592 306.913 444.925C306.58 444.425 306.164 443.426 305.664 441.926C305.331 440.594 305.164 439.094 305.164 437.429L304.664 434.68Z" fill="white"/>
<path d="M343.643 438.428C345.642 436.096 347.974 434.431 350.639 433.431C353.304 432.266 356.47 431.682 360.134 431.682C365.464 431.682 369.795 433.098 373.126 435.93C376.624 438.928 378.374 444.091 378.374 451.42V473.908C378.374 476.739 379.123 478.156 380.622 478.156C381.122 478.156 381.955 477.906 383.12 477.406H384.87C386.202 477.406 387.202 477.906 387.868 478.904C388.7 479.904 389.116 481.236 389.116 482.903C389.116 486.567 387.118 488.4 383.12 488.4L378.123 487.9L372.376 487.651L363.132 488.4H361.134C357.635 488.4 355.886 486.484 355.886 482.654C355.886 481.32 356.219 480.071 356.886 478.904C357.552 477.906 358.384 477.406 359.384 477.406H360.634L362.882 477.906C364.215 477.906 364.88 476.572 364.88 473.908V457.668V456.918C364.88 454.252 364.798 452.42 364.631 451.42C364.631 450.422 364.382 449.255 363.882 447.923C363.215 446.423 362.132 445.175 360.634 444.175C359.134 443.343 357.302 442.926 355.136 442.926C352.971 442.926 350.723 443.676 348.391 445.175C347.891 445.675 347.391 446.091 346.891 446.423C346.558 446.923 346.142 447.423 345.642 447.923C344.976 449.088 344.476 450.339 344.143 451.671C343.81 453.171 343.643 455.336 343.643 458.167V473.908C343.643 476.572 344.31 477.906 345.642 477.906H345.892L348.14 477.406H349.14C351.472 477.406 352.638 479.322 352.638 483.154C352.638 486.651 350.639 488.4 346.642 488.4L341.643 487.9L336.147 487.651L326.652 488.4H324.654C320.988 488.4 319.156 486.484 319.156 482.654C319.156 481.154 319.572 479.904 320.406 478.904C321.072 477.906 322.071 477.406 323.404 477.406H325.154C326.152 477.906 326.986 478.156 327.651 478.156C329.151 478.156 329.9 476.739 329.9 473.907V429.934C329.9 425.935 328.984 423.936 327.152 423.936H325.652L323.404 424.186C320.572 424.186 319.156 422.271 319.156 418.44C319.156 414.442 321.239 412.443 325.403 412.443L328.651 412.692L333.148 413.192L336.396 412.943L339.895 412.443H340.394C341.727 412.443 342.643 412.776 343.143 413.443C343.643 414.275 343.892 415.858 343.892 418.19V418.688L343.643 438.428Z" fill="white"/>
<path fill-rule="evenodd" clip-rule="evenodd" d="M409.355 452.921V453.67C409.521 453.837 410.021 453.92 410.855 453.92H431.092C431.925 453.92 432.425 453.837 432.592 453.67C432.759 453.504 432.841 453.17 432.841 452.672C432.841 451.338 432.425 449.756 431.592 447.924C430.759 446.257 429.76 444.841 428.593 443.676C426.761 442.176 424.347 441.428 421.348 441.428C418.016 441.428 415.185 442.593 412.853 444.925C410.521 447.09 409.355 449.756 409.355 452.921ZM411.104 463.165C410.104 463.165 409.437 463.332 409.105 463.665C408.939 463.832 408.855 464.414 408.855 465.413C408.855 468.745 410.188 471.742 412.853 474.408C415.519 476.906 418.683 478.157 422.348 478.157C426.345 478.157 429.843 476.158 432.841 472.16L434.34 470.161C434.84 469.329 435.507 468.662 436.34 468.162C437.172 467.662 438.172 467.412 439.337 467.412C441.169 467.412 442.669 467.912 443.835 468.912C444.835 469.91 445.335 471.244 445.335 472.909C445.335 474.076 445.084 475.241 444.584 476.408C442.752 480.405 439.755 483.569 435.589 485.901C431.425 488.068 426.512 489.15 420.848 489.15C412.853 489.15 406.44 486.568 401.609 481.404C396.945 476.241 394.613 469.329 394.613 460.666C394.613 451.838 397.028 444.841 401.859 439.677C406.856 434.348 413.436 431.682 421.597 431.682C429.093 431.682 435.091 433.932 439.588 438.429C444.085 442.926 446.333 448.922 446.333 456.418C446.333 459.084 446 460.833 445.335 461.666C445.168 462.333 444.751 462.749 444.085 462.914C443.585 463.081 442.752 463.165 441.587 463.165H411.104Z" fill="white"/>
<path d="M534.034 421.688L534.284 419.189C534.284 417.524 534.701 416.357 535.534 415.692C536.366 415.025 537.7 414.692 539.532 414.692C543.196 414.692 545.029 416.44 545.029 419.939V420.689L544.029 430.433L544.278 439.179C544.278 443.509 542.113 445.675 537.782 445.675C536.117 445.675 534.701 445.259 533.534 444.425C532.368 443.76 531.785 442.76 531.785 441.428L531.036 436.931C530.536 433.765 529.037 431.267 526.538 429.435C524.04 427.436 520.958 426.436 517.294 426.436C511.63 426.436 507.216 428.768 504.052 433.432C500.886 438.096 499.304 444.425 499.304 452.421C499.304 460.416 500.804 466.58 503.801 470.911C506.966 475.408 511.297 477.657 516.794 477.657C520.792 477.657 524.04 476.491 526.538 474.159C529.204 471.993 530.536 469.245 530.536 465.913C530.536 462.915 529.37 461.416 527.038 461.416C526.038 461.416 525.122 461.499 524.29 461.665C523.457 461.999 522.624 462.165 521.792 462.165C518.293 462.165 516.544 460.167 516.544 456.168C516.544 454.169 517.044 452.588 518.044 451.421C519.042 450.256 520.458 449.672 522.291 449.672C523.291 449.672 524.54 449.839 526.038 450.172C527.538 450.339 529.037 450.505 530.536 450.672C532.036 450.839 533.868 450.923 536.033 450.923C539.532 450.923 543.529 450.672 548.026 450.172L551.274 449.672C553.108 449.672 554.522 450.256 555.522 451.421C556.689 452.588 557.272 454.169 557.272 456.168C557.272 459.667 555.44 461.416 551.774 461.416H549.526H549.276C547.61 461.416 546.61 461.916 546.278 462.915C545.778 463.748 545.445 464.915 545.278 466.413C545.112 467.745 545.029 470.16 545.029 473.66V481.904C545.029 486.901 542.946 489.4 538.782 489.4C536.95 489.4 535.534 488.984 534.534 488.151C533.534 487.485 533.034 486.401 533.034 484.903V483.653V480.905L530.286 484.153C526.954 487.652 521.541 489.4 514.045 489.4C504.552 489.4 497.056 486.068 491.558 479.405C485.896 472.909 483.062 463.997 483.062 452.671C483.062 440.844 485.896 431.516 491.558 424.687C497.389 417.691 505.217 414.192 515.045 414.192C519.542 414.192 523.124 414.692 525.789 415.692C528.454 416.691 531.202 418.689 534.034 421.688Z" fill="white"/>
<path fill-rule="evenodd" clip-rule="evenodd" d="M595.5 466.163L595.25 460.915C593.75 461.915 592.669 462.498 592.002 462.664C591.336 462.998 590.17 463.331 588.505 463.664C585.506 464.498 583.841 464.914 583.508 464.914C580.676 465.58 578.677 466.412 577.51 467.412C576.178 468.412 575.512 469.827 575.512 471.659C575.512 475.824 578.177 477.907 583.508 477.907C587.005 477.907 589.92 476.823 592.252 474.658C594.417 472.659 595.501 469.994 595.501 466.663L595.5 466.163ZM579.758 442.926C580.425 444.258 580.758 445.342 580.758 446.174C580.758 448.007 580.009 449.588 578.51 450.92C577.01 452.42 575.178 453.17 573.013 453.17C570.681 453.17 568.682 452.42 567.017 450.92C565.517 449.255 564.768 447.256 564.768 444.924C564.768 442.092 566.1 439.427 568.765 436.928C570.43 435.596 572.097 434.68 573.762 434.182C578.093 432.515 583.257 431.683 589.253 431.683C596.416 431.683 601.497 433.182 604.494 436.18C607.66 439.012 609.242 443.758 609.242 450.422V473.41C609.242 474.908 609.492 475.908 609.992 476.407C610.492 477.074 611.408 477.407 612.741 477.407H615.24C615.906 477.407 616.572 477.656 617.238 478.156C618.737 478.988 619.486 480.488 619.486 482.654C619.486 483.986 619.07 485.235 618.238 486.402C617.572 487.402 616.572 488.067 615.24 488.4C614.073 488.734 612.241 488.9 609.742 488.9C606.245 488.9 603.746 488.4 602.246 487.402C600.748 486.402 599.581 484.403 598.749 481.404C597.416 482.738 596.333 483.736 595.5 484.403C594.501 485.07 593.334 485.735 592.002 486.402C588.504 488.067 584.589 488.9 580.258 488.9C568.098 488.9 562.02 483.319 562.02 472.159C562.02 467.495 563.268 464.08 565.766 461.915C566.266 461.415 566.85 460.915 567.516 460.415C568.349 459.915 569.265 459.416 570.264 458.916C571.264 458.25 572.429 457.75 573.762 457.416C575.261 457.084 577.344 456.584 580.009 455.918L585.256 455.168C587.921 454.67 589.753 454.17 590.752 453.67C591.918 453.336 592.834 452.836 593.501 452.171C594.668 451.171 595.25 449.588 595.25 447.423C595.25 445.424 594.584 443.758 593.25 442.426C591.752 441.259 589.837 440.678 587.505 440.678C584.673 440.678 582.09 441.426 579.758 442.926Z" fill="white"/>
<path d="M653.466 442.926C650.635 444.925 648.802 447.09 647.97 449.422C646.803 452.254 646.219 455.337 646.219 458.667V473.909C646.219 476.906 646.886 478.406 648.219 478.406C649.218 478.406 650.384 478.073 651.716 477.406H653.216C654.548 477.406 655.631 477.906 656.464 478.905C657.131 479.905 657.464 481.237 657.464 482.903C657.464 486.567 655.548 488.399 651.716 488.399H650.218L646.47 487.899L639.723 487.651H636.476C632.146 488.15 629.73 488.399 629.23 488.399H627.231C623.399 488.399 621.484 486.485 621.484 482.654C621.484 481.154 621.9 479.905 622.734 478.905C623.566 477.906 624.65 477.406 625.982 477.406H627.482L630.228 478.406C631.728 478.406 632.478 476.906 632.478 473.909V449.922C632.478 445.925 631.562 443.926 629.73 443.926C629.063 443.926 628.563 444.009 628.23 444.175L625.731 444.425C622.9 444.425 621.484 442.593 621.484 438.929C621.484 434.765 623.399 432.681 627.231 432.681H628.23L632.479 433.181C633.144 433.181 634.394 433.098 636.226 432.931C637.224 432.598 638.224 432.431 639.224 432.431C640.556 432.431 641.474 432.765 641.972 433.431C642.639 434.265 642.972 435.597 642.972 437.429V443.426C644.304 441.094 645.387 439.343 646.22 438.178C647.052 437.011 648.219 435.93 649.718 434.93C652.55 432.765 655.632 431.682 658.963 431.682C661.628 431.682 663.794 432.431 665.459 433.931C667.126 435.263 667.958 437.095 667.958 439.427C667.958 441.594 667.21 443.426 665.71 444.925C664.211 446.423 662.462 447.174 660.462 447.174C658.963 447.174 657.715 446.923 656.715 446.423C655.715 445.758 654.632 444.591 653.466 442.926Z" fill="white"/>
<path fill-rule="evenodd" clip-rule="evenodd" d="M702.939 466.163L702.69 460.915C701.19 461.915 700.107 462.498 699.442 462.664C698.775 462.998 697.608 463.331 695.943 463.664C692.944 464.498 691.279 464.914 690.946 464.914C687.947 465.58 685.864 466.412 684.699 467.412C683.532 468.412 682.951 469.827 682.951 471.659C682.951 475.824 685.531 477.907 690.695 477.907C694.36 477.907 697.275 476.823 699.44 474.658C701.772 472.659 702.939 469.994 702.939 466.663V466.163ZM686.948 442.926C687.614 444.258 687.947 445.342 687.947 446.174C687.947 448.007 687.198 449.588 685.698 450.92C684.199 452.42 682.367 453.17 680.202 453.17C677.87 453.17 675.955 452.42 674.455 450.92C672.79 449.255 671.956 447.256 671.956 444.924C671.956 442.092 673.372 439.427 676.203 436.928C677.87 435.596 679.535 434.68 681.2 434.182C685.366 432.515 690.528 431.683 696.692 431.683C703.688 431.683 708.768 433.182 711.934 436.18C715.099 439.012 716.682 443.758 716.682 450.422V473.41C716.682 474.908 716.931 475.908 717.431 476.407C717.93 477.074 718.847 477.407 720.179 477.407H722.678C723.344 477.407 724.011 477.656 724.676 478.156C726.01 478.988 726.676 480.488 726.676 482.654C726.676 483.986 726.343 485.235 725.676 486.402C724.843 487.402 723.844 488.067 722.678 488.4C721.346 488.734 719.514 488.9 717.182 488.9C713.683 488.9 711.1 488.4 709.435 487.402C707.936 486.402 706.77 484.403 705.936 481.404C704.771 482.738 703.688 483.736 702.69 484.403C701.856 485.07 700.69 485.735 699.19 486.402C695.692 488.067 691.778 488.9 687.447 488.9C675.288 488.9 669.207 483.319 669.207 472.159C669.207 467.495 670.458 464.08 672.956 461.915C673.455 461.415 674.122 460.915 674.955 460.415C675.62 459.915 676.454 459.416 677.454 458.916C678.619 458.25 679.868 457.75 681.2 457.416C682.532 457.084 684.616 456.584 687.447 455.918L692.444 455.168C695.11 454.67 697.024 454.17 698.191 453.67C699.19 453.336 700.023 452.836 700.69 452.171C702.023 451.171 702.69 449.588 702.69 447.423C702.69 445.424 701.939 443.758 700.44 442.426C699.107 441.259 697.191 440.678 694.692 440.678C691.86 440.678 689.279 441.426 686.948 442.926Z" fill="white"/>
<path fill-rule="evenodd" clip-rule="evenodd" d="M760.155 440.677C757.657 440.677 755.574 441.51 753.909 443.176C752.243 444.841 751.41 447.09 751.41 449.923C751.41 452.754 752.243 454.92 753.909 456.418C755.407 458.084 757.49 458.917 760.155 458.917C762.987 458.917 765.153 458.084 766.651 456.418C768.318 454.753 769.15 452.504 769.15 449.672C769.15 446.84 768.318 444.674 766.651 443.176C765.153 441.51 762.987 440.677 760.155 440.677ZM744.665 490.149V491.149C745.497 495.146 750.577 497.145 759.906 497.145C764.57 497.145 768.235 496.48 770.901 495.146C773.565 493.814 774.898 492.065 774.898 489.9C774.898 486.734 772.899 484.736 768.901 483.902C767.902 483.569 767.069 483.402 766.402 483.402C765.737 483.236 764.486 483.152 762.654 483.152H752.909C750.41 483.152 748.411 483.818 746.913 485.152C745.413 486.484 744.665 488.149 744.665 490.149ZM741.166 478.654C737.835 477.489 735.419 476.156 733.919 474.657C732.587 473.158 731.921 471.16 731.921 468.661C731.921 465.996 732.587 463.914 733.919 462.414C735.086 460.749 737.418 459.166 740.915 457.668C739.75 455.834 738.917 454.336 738.417 453.169C738.085 451.837 737.918 450.338 737.918 448.672C737.918 443.676 739.75 439.51 743.414 436.18C747.246 433.014 752.077 431.432 757.906 431.432H760.905C761.405 431.598 762.487 431.849 764.153 432.183C764.986 429.517 765.819 427.601 766.651 426.435C767.485 425.103 768.567 424.02 769.901 423.188C772.399 421.688 775.231 420.938 778.395 420.938C781.561 420.938 784.142 421.688 786.141 423.188C787.973 424.687 788.89 426.601 788.89 428.933C788.89 430.932 788.306 432.514 787.139 433.681C785.974 434.846 784.391 435.429 782.393 435.429C778.729 435.429 776.646 433.264 776.146 428.933C774.647 429.6 773.565 430.183 772.898 430.683C772.399 431.349 771.815 432.597 771.149 434.43C773.481 435.429 775.065 436.262 775.897 436.929C776.897 437.594 777.895 438.428 778.895 439.428C781.394 442.26 782.642 445.674 782.642 449.672C782.642 455.169 780.727 459.584 776.897 462.914C772.898 466.246 767.651 467.912 761.155 467.912C758.99 467.912 756.907 467.745 754.907 467.412C752.909 466.913 751.161 466.329 749.662 465.662C748.662 465.162 747.83 464.913 747.163 464.913C746.497 464.913 745.83 465.246 745.165 465.913C744.498 466.58 744.165 467.245 744.165 467.912C744.165 469.744 745.247 471.077 747.413 471.909C749.578 472.742 752.909 473.158 757.406 473.158H767.151C770.982 473.158 773.981 473.409 776.146 473.908C778.311 474.408 780.477 475.408 782.642 476.906C786.474 479.905 788.39 483.902 788.39 488.9C788.39 494.896 785.807 499.56 780.643 502.892C775.479 506.224 768.234 507.889 758.906 507.889C753.075 507.889 748.245 507.306 744.414 506.141C741.915 505.308 739.501 504.057 737.169 502.392C734.837 500.726 733.171 498.978 732.171 497.145C731.338 495.48 730.922 493.481 730.922 491.149C730.922 487.816 731.587 485.318 732.921 483.652C734.419 481.82 737.169 480.154 741.166 478.654Z" fill="white"/>
<path fill-rule="evenodd" clip-rule="evenodd" d="M807.629 452.921V453.67C807.795 453.837 808.295 453.92 809.128 453.92H829.367C830.2 453.92 830.699 453.837 830.865 453.67C831.032 453.504 831.115 453.17 831.115 452.672C831.115 451.338 830.699 449.756 829.867 447.924C829.033 446.257 828.035 444.841 826.868 443.676C825.036 442.176 822.62 441.428 819.621 441.428C816.289 441.428 813.459 442.593 811.127 444.925C808.795 447.09 807.628 449.756 807.628 452.921H807.629ZM809.379 463.165C808.379 463.165 807.796 463.332 807.629 463.665C807.296 463.832 807.129 464.414 807.129 465.413C807.129 468.745 808.461 471.742 811.127 474.408C813.792 476.906 816.956 478.157 820.621 478.157C824.619 478.157 828.117 476.158 831.115 472.16L832.615 470.161C833.113 469.329 833.78 468.662 834.613 468.162C835.445 467.662 836.529 467.412 837.861 467.412C839.527 467.412 840.943 467.912 842.108 468.912C843.108 469.91 843.608 471.244 843.608 472.909C843.608 474.076 843.359 475.241 842.859 476.408C841.027 480.405 838.028 483.569 833.864 485.901C829.7 488.068 824.869 489.15 819.372 489.15C811.377 489.15 804.964 486.568 800.133 481.404C795.303 476.241 792.887 469.329 792.887 460.666C792.887 451.838 795.385 444.841 800.383 439.677C805.213 434.348 811.711 431.682 819.872 431.682C827.368 431.682 833.364 433.932 837.861 438.429C842.359 442.926 844.607 448.922 844.607 456.418C844.607 459.084 844.273 460.833 843.608 461.666C843.441 462.333 843.108 462.749 842.608 462.914C842.108 463.081 841.193 463.165 839.86 463.165H809.379Z" fill="white"/>
<path d="M900.495 231.268C900.495 239.204 894.062 245.638 886.125 245.638C878.189 245.638 871.754 239.204 871.754 231.268C871.754 223.331 878.189 216.898 886.125 216.898C894.062 216.898 900.495 223.331 900.495 231.268Z" fill="white"/>
<path d="M900.495 498.339C900.495 506.275 894.062 512.708 886.125 512.708C878.189 512.708 871.754 506.275 871.754 498.339C871.754 490.401 878.189 483.968 886.125 483.968C894.062 483.968 900.495 490.401 900.495 498.339Z" fill="white"/>
<path d="M237.424 231.268C237.424 239.204 230.99 245.638 223.053 245.638C215.117 245.638 208.684 239.204 208.684 231.268C208.684 223.331 215.117 216.898 223.053 216.898C230.99 216.898 237.424 223.331 237.424 231.268Z" fill="white"/>
<path d="M237.424 498.339C237.424 506.275 230.99 512.708 223.053 512.708C215.117 512.708 208.684 506.275 208.684 498.339C208.684 490.401 215.117 483.968 223.053 483.968C230.99 483.968 237.424 490.401 237.424 498.339Z" fill="white"/>
<path d="M900.495 498.339C900.495 506.275 894.062 512.708 886.125 512.708C878.189 512.708 871.754 506.275 871.754 498.339C871.754 490.401 878.189 483.968 886.125 483.968C894.062 483.968 900.495 490.401 900.495 498.339Z" fill="white"/>
</g>
</svg>
